<?xml version="1.0" encoding="UTF-8" standalone="no"?>
<svg
   xmlns:dc="http://purl.org/dc/elements/1.1/"
   xmlns:cc="http://creativecommons.org/ns#"
   xmlns:rdf="http://www.w3.org/1999/02/22-rdf-syntax-ns#"
   xmlns:svg="http://www.w3.org/2000/svg"
   xmlns="http://www.w3.org/2000/svg"
   xmlns:sodipodi="http://sodipodi.sourceforge.net/DTD/sodipodi-0.dtd"
   xmlns:inkscape="http://www.inkscape.org/namespaces/inkscape"
   width="4000"
   height="3000"
   viewBox="0 0 1058.3333 793.75002"
   version="1.1"
   id="svg8"
   sodipodi:docname="no_images_found.svg"
   inkscape:version="1.0.1 (3bc2e813f5, 2020-09-07)"
   inkscape:export-filename="/buildroot/mythingos/package/photoframe/images/noimages.png"
   inkscape:export-xdpi="307.20001"
   inkscape:export-ydpi="307.20001">
  <defs
     id="defs2">
    <inkscape:path-effect
       effect="spiro"
       id="path-effect839"
       is_visible="true"
       lpeversion="1" />
  </defs>
  <sodipodi:namedview
     id="base"
     pagecolor="#ffffff"
     bordercolor="#666666"
     borderopacity="1.0"
     inkscape:pageopacity="0.0"
     inkscape:pageshadow="2"
     inkscape:zoom="0.24748737"
     inkscape:cx="1820.3204"
     inkscape:cy="1272.45"
     inkscape:document-units="px"
     inkscape:current-layer="layer1"
     inkscape:document-rotation="0"
     showgrid="true"
     units="px"
     inkscape:snap-bbox="true"
     inkscape:bbox-nodes="true"
     inkscape:snap-bbox-edge-midpoints="true"
     inkscape:window-width="1920"
     inkscape:window-height="1080"
     inkscape:window-x="1366"
     inkscape:window-y="-20"
     inkscape:window-maximized="0">
    <inkscape:grid
       type="xygrid"
       id="grid10" />
  </sodipodi:namedview>
  <metadata
     id="metadata5">
    <rdf:RDF>
      <cc:Work
         rdf:about="">
        <dc:format>image/svg+xml</dc:format>
        <dc:type
           rdf:resource="http://purl.org/dc/dcmitype/StillImage" />
        <dc:title />
      </cc:Work>
    </rdf:RDF>
  </metadata>
  <g
     inkscape:label="Layer 1"
     inkscape:groupmode="layer"
     id="layer1">
    <rect
       style="fill:#b08686;stroke:none;stroke-width:0.52916666;stroke-linecap:round;stroke-linejoin:round;stroke-miterlimit:4;stroke-dasharray:none;stroke-dashoffset:99;paint-order:normal;fill-opacity:1"
       id="rect971"
       width="1058.3334"
       height="793.75"
       x="0"
       y="0" />
    <g
       id="g969"
       transform="matrix(24.666667,0,0,24.666667,121.26735,133.35022)">
      <path
         style="fill:none;fill-rule:evenodd;stroke:#000000;stroke-width:0.529167;stroke-linecap:round;stroke-linejoin:round;stroke-miterlimit:4;stroke-dasharray:none;stroke-opacity:1"
         d="M 1.3229168,5.2916671 V 11.90625"
         id="path12"
         sodipodi:nodetypes="cc" />
      <path
         style="fill:none;fill-rule:evenodd;stroke:#000000;stroke-width:0.529167;stroke-linecap:round;stroke-linejoin:round;stroke-miterlimit:4;stroke-dasharray:none;stroke-opacity:1"
         d="m 1.3229168,8.4666671 v -3.704167 c 0,-0.529166 0.2645834,-0.79375 0.79375,-0.79375 h 5.0270834 c 0.529167,0 0.79375,0.264584 0.79375,0.79375 v 3.704167 c -0.00384,0.549058 -0.264583,0.79375 -0.79375,0.79375 H 2.1166668 c -0.5291666,0 -0.79375,-0.264583 -0.79375,-0.79375 z"
         id="path841"
         sodipodi:nodetypes="ccccccccc" />
      <path
         style="fill:none;fill-rule:evenodd;stroke:#000000;stroke-width:0.529167;stroke-linecap:round;stroke-linejoin:round;stroke-miterlimit:4;stroke-dasharray:none;stroke-opacity:1"
         d="m 1.3229168,7.9375001 1.5875,-1.5875 c 0.2645834,-0.264583 0.79375,-0.264583 1.0583334,0 l 2.116667,2.116667"
         id="path843"
         sodipodi:nodetypes="cccc" />
      <path
         style="fill:none;fill-rule:evenodd;stroke:#000000;stroke-width:0.529167;stroke-linecap:round;stroke-linejoin:round;stroke-miterlimit:4;stroke-dasharray:none;stroke-opacity:1"
         d="m 7.9375002,7.9375001 -0.79375,-0.79375 c -0.264583,-0.264583 -0.79375,-0.264583 -1.058333,0 l -0.5291671,0.529167"
         id="path845"
         sodipodi:nodetypes="cccc" />
      <circle
         style="fill:#000000;stroke:none;stroke-width:0.529167;stroke-linecap:round;stroke-linejoin:round;stroke-miterlimit:4;stroke-dasharray:none;stroke-dashoffset:99;paint-order:normal"
         id="path849"
         cx="5.8208332"
         cy="5.0270834"
         r="0.26458332" />
      <path
         style="fill:none;fill-rule:evenodd;stroke:#000000;stroke-width:0.529167;stroke-linecap:round;stroke-linejoin:round;stroke-miterlimit:4;stroke-dasharray:none;stroke-opacity:1"
         d="m 14.552083,8.4666671 v -3.704167 c 0,-0.529166 0.264583,-0.79375 0.79375,-0.79375 h 2.38125 c 0.529167,0 0.79375,0.264584 0.79375,0.79375 v 3.704167 c -0.0038,0.549058 -0.264583,0.79375 -0.79375,0.79375 h -2.38125 c -0.529167,0 -0.79375,-0.264583 -0.79375,-0.79375 z"
         id="path841-3"
         sodipodi:nodetypes="ccccccccc" />
      <path
         style="fill:none;fill-rule:evenodd;stroke:#000000;stroke-width:0.529167;stroke-linecap:round;stroke-linejoin:round;stroke-miterlimit:4;stroke-dasharray:none;stroke-opacity:1"
         d="m 19.84375,1.3229176 1e-6,7.1437485 c 0,0.529167 0.264583,0.79375 0.793749,0.79375 l 0.529167,10e-7"
         id="path866"
         sodipodi:nodetypes="cccc" />
      <path
         style="fill:none;fill-rule:evenodd;stroke:#000000;stroke-width:0.529167;stroke-linecap:round;stroke-linejoin:round;stroke-miterlimit:4;stroke-dasharray:none;stroke-opacity:1"
         d="m 19.84375,3.9687501 h 1.322917"
         id="path12-6"
         sodipodi:nodetypes="cc" />
      <path
         style="fill:none;fill-rule:evenodd;stroke:#000000;stroke-width:0.529167;stroke-linecap:round;stroke-linejoin:round;stroke-miterlimit:4;stroke-dasharray:none;stroke-opacity:1"
         d="M 22.489583,8.4666671 V 2.1166673 c 0,-0.529166 0.264583,-0.79375 0.79375,-0.79375 l 2.38125,-1e-7 c 0.529167,0 0.79375,0.264584 0.79375,0.79375 v 6.3499999 c -0.0038,0.549058 -0.264583,0.79375 -0.79375,0.79375 h -2.38125 c -0.529167,0 -0.79375,-0.264583 -0.79375,-0.79375 z"
         id="path841-3-7"
         sodipodi:nodetypes="ccccccccc" />
      <path
         style="fill:none;fill-rule:evenodd;stroke:#000000;stroke-width:0.529167;stroke-linecap:round;stroke-linejoin:round;stroke-miterlimit:4;stroke-dasharray:none;stroke-opacity:1"
         d="m 9.2604172,1.3229171 v 7.9375"
         id="path12-5"
         sodipodi:nodetypes="cc" />
      <path
         style="fill:none;fill-rule:evenodd;stroke:#000000;stroke-width:0.529167;stroke-linecap:round;stroke-linejoin:round;stroke-miterlimit:4;stroke-dasharray:none;stroke-opacity:1"
         d="m 9.2604172,4.7625001 c 0,-0.529166 0.264583,-0.79375 0.7937498,-0.79375 h 2.38125 c 0.529166,0 0.79375,0.264584 0.79375,0.79375 v 4.497917"
         id="path12-3"
         sodipodi:nodetypes="ccccc" />
      <path
         style="fill:none;fill-rule:evenodd;stroke:#000000;stroke-width:0.529167;stroke-linecap:round;stroke-linejoin:round;stroke-miterlimit:4;stroke-dasharray:none;stroke-opacity:1"
         d="m 27.78125,9.2604171 c 1.058333,0 2.116666,0 3.174999,0 0.529167,0 0.79375,-0.264583 0.79375,-0.79375 l 1e-6,-3.704167 c 0,-0.529167 -0.264583,-0.79375 -0.79375,-0.79375 H 28.575 c -0.529166,0 -0.79375,-0.264583 -0.79375,-0.7937497 l -1e-6,-1.0583332 c 0,-0.5291666 0.253007,-0.7869967 0.79375,-0.79375 1.058334,0 2.116667,0 3.175001,-1e-7"
         id="path919"
         sodipodi:nodetypes="cccccccccc" />
    </g>
    <text
       xml:space="preserve"
       style="font-weight:bold;font-size:50.8px;line-height:2.4ex;font-family:Orbitron;-inkscape-font-specification:'Orbitron Bold';text-align:end;letter-spacing:0px;word-spacing:0px;writing-mode:lr-tb;text-anchor:end;fill:#000000;fill-opacity:1;stroke:#000000;stroke-width:0.264583px;stroke-linecap:butt;stroke-linejoin:miter;stroke-opacity:1"
       x="734.289"
       y="555.18652"
       id="text975"><tspan
         sodipodi:role="line"
         id="tspan973"
         x="734.289"
         y="555.18652"
         style="font-style:normal;font-variant:normal;font-weight:bold;font-stretch:normal;font-size:50.8px;font-family:'Luxi Sans';-inkscape-font-specification:'Luxi Sans Bold';fill:#000000;fill-opacity:1;stroke-width:0.264583px">No images found</tspan></text>
  </g>
</svg>
