<?xml version="1.0" encoding="UTF-8" standalone="no"?>
<svg
   xmlns:dc="http://purl.org/dc/elements/1.1/"
   xmlns:cc="http://creativecommons.org/ns#"
   xmlns:rdf="http://www.w3.org/1999/02/22-rdf-syntax-ns#"
   xmlns:svg="http://www.w3.org/2000/svg"
   xmlns="http://www.w3.org/2000/svg"
   xmlns:sodipodi="http://sodipodi.sourceforge.net/DTD/sodipodi-0.dtd"
   xmlns:inkscape="http://www.inkscape.org/namespaces/inkscape"
   width="125"
   height="50"
   viewBox="0 0 33.072915 13.229167"
   version="1.1"
   id="svg8"
   sodipodi:docname="photos_logo.svg"
   inkscape:version="1.0.2 (e86c870879, 2021-01-15)">
  <defs
     id="defs2">
    <inkscape:path-effect
       effect="spiro"
       id="path-effect839"
       is_visible="true"
       lpeversion="1" />
  </defs>
  <sodipodi:namedview
     id="base"
     pagecolor="#ffffff"
     bordercolor="#666666"
     borderopacity="1.0"
     inkscape:pageopacity="0.0"
     inkscape:pageshadow="2"
     inkscape:zoom="11.2"
     inkscape:cx="52.221848"
     inkscape:cy="13.196763"
     inkscape:document-units="px"
     inkscape:current-layer="bridge"
     inkscape:document-rotation="0"
     showgrid="true"
     units="px"
     inkscape:snap-bbox="true"
     inkscape:bbox-nodes="true"
     inkscape:snap-bbox-edge-midpoints="true"
     inkscape:window-width="1918"
     inkscape:window-height="1158"
     inkscape:window-x="1366"
     inkscape:window-y="20"
     inkscape:window-maximized="1">
    <inkscape:grid
       type="xygrid"
       id="grid10" />
  </sodipodi:namedview>
  <metadata
     id="metadata5">
    <rdf:RDF>
      <cc:Work
         rdf:about="">
        <dc:format>image/svg+xml</dc:format>
        <dc:type
           rdf:resource="http://purl.org/dc/dcmitype/StillImage" />
        <dc:title />
      </cc:Work>
    </rdf:RDF>
  </metadata>
  <g
     inkscape:label="p"
     inkscape:groupmode="layer"
     id="layer1"
     sodipodi:insensitive="true">
    <path
       style="fill:none;fill-rule:evenodd;stroke:#000000;stroke-width:0.529167;stroke-linecap:round;stroke-linejoin:round;stroke-miterlimit:4;stroke-dasharray:none;stroke-opacity:1"
       d="M 1.3229168,5.2916671 V 11.90625"
       id="path12"
       sodipodi:nodetypes="cc" />
    <path
       style="fill:none;fill-rule:evenodd;stroke:#000000;stroke-width:0.529167;stroke-linecap:round;stroke-linejoin:round;stroke-miterlimit:4;stroke-dasharray:none;stroke-opacity:1"
       d="m 1.3229168,8.4666671 v -3.704167 c 0,-0.529166 0.2645834,-0.79375 0.79375,-0.79375 h 5.0270834 c 0.529167,0 0.79375,0.264584 0.79375,0.79375 v 3.704167 c -0.00384,0.549058 -0.264583,0.79375 -0.79375,0.79375 H 2.1166668 c -0.5291666,0 -0.79375,-0.264583 -0.79375,-0.79375 z"
       id="path841"
       sodipodi:nodetypes="ccccccccc" />
  </g>
  <g
     inkscape:groupmode="layer"
     id="bridge"
     inkscape:label="bridge"
     style="display:none">
      <path
         style="fill:none;fill-rule:evenodd;stroke:#000000;stroke-width:0.529167;stroke-linecap:round;stroke-linejoin:miter;stroke-miterlimit:4;stroke-dasharray:none;stroke-opacity:1"
         d="M 1.3229166,7.6729166 H 7.9374999"
         id="path2619" />
      <path
         style="fill:none;fill-rule:evenodd;stroke:#000000;stroke-width:0.529167;stroke-linecap:round;stroke-linejoin:round;stroke-miterlimit:4;stroke-dasharray:none;stroke-opacity:1"
         d="m 1.3229166,6.8791666 c 0.79375,0 1.3229167,-1.0583333 1.5875,-1.3229167 1.3229166,1.3229167 2.1166667,1.3229167 3.4395833,0 0.2645834,0.2645834 0.79375,1.3229167 1.5875,1.3229167"
         id="path2619-3"
         sodipodi:nodetypes="cccc" />
      <path
         style="fill:none;fill-rule:evenodd;stroke:#000000;stroke-width:0.529167;stroke-linecap:round;stroke-linejoin:miter;stroke-miterlimit:4;stroke-dasharray:none;stroke-opacity:1"
         d="M 2.9104166,5.5562499 V 7.6729166"
         id="path2619-6"
         sodipodi:nodetypes="cc" />
      <path
         style="fill:none;fill-rule:evenodd;stroke:#000000;stroke-width:0.529167;stroke-linecap:round;stroke-linejoin:miter;stroke-miterlimit:4;stroke-dasharray:none;stroke-opacity:1"
         d="M 6.3499999,5.5562499 V 7.6729166"
         id="path2619-6-7"
         sodipodi:nodetypes="cc" />
      <set
         id="anm_bridge_display"
         dur="5s"
         attributeName="display"
         attributeType="CSS"
         begin="5s;anm_mountains_display.end+5s"
         from="none"
         to="inline"
          />
  </g>
  <g
     inkscape:groupmode="layer"
     id="people"
     inkscape:label="people"
     style="display:none">
    <path
       style="fill:none;fill-rule:evenodd;stroke:#000000;stroke-width:0.264583px;stroke-linecap:round;stroke-linejoin:round;stroke-opacity:1"
       d="m 2.6458333,7.9374999 c 0,-1.0583333 0.2645833,-1.3229167 0.5291667,-1.3229167 0.2645833,0 0.5291666,0.2645834 0.5291666,1.3229167"
       id="path3505"
       sodipodi:nodetypes="ccc" />
    <path
       style="fill:none;fill-rule:evenodd;stroke:#000000;stroke-width:0.264583px;stroke-linecap:round;stroke-linejoin:round;stroke-opacity:1"
       d="m 4.2333333,7.9374999 c 0,-1.0583333 0.2645833,-1.3229167 0.5291667,-1.3229167 0.2645833,0 0.5291666,0.2645834 0.5291666,1.3229167"
       id="path3505-5"
       sodipodi:nodetypes="ccc" />
    <path
       style="fill:none;fill-rule:evenodd;stroke:#000000;stroke-width:0.264583px;stroke-linecap:round;stroke-linejoin:round;stroke-opacity:1"
       d="m 5.5562499,7.9374999 c 0,-0.5291667 0,-0.79375 0.2645834,-0.79375 0.2645833,0 0.2645833,0.2645833 0.2645833,0.79375"
       id="path3505-3"
       sodipodi:nodetypes="ccc" />
    <circle
       style="fill:#840001;fill-opacity:0.357671;stroke:none;stroke-width:1.05833;stroke-linecap:round;stroke-linejoin:round;stroke-miterlimit:4;stroke-dasharray:none;stroke-dashoffset:99"
       id="path3539"
       sodipodi:type="arc"
       sodipodi:cx="3.175"
       sodipodi:cy="6.0854168"
       sodipodi:rx="0.26458329"
       sodipodi:ry="0.26458329"
       sodipodi:start="0"
       sodipodi:end="6.2754535"
       sodipodi:arc-type="slice"
       d="M 3.4395832,6.0854168 A 0.26458329,0.26458329 0 0 1 3.1755114,6.3499996 0.26458329,0.26458329 0 0 1 2.9104186,6.0864396 0.26458329,0.26458329 0 0 1 3.1734657,5.820838 0.26458329,0.26458329 0 0 1 3.4395753,6.0833711 L 3.175,6.0854168 Z" />
    <circle
       style="fill:#840001;fill-opacity:0.357671;stroke:none;stroke-width:1.05833;stroke-linecap:round;stroke-linejoin:round;stroke-miterlimit:4;stroke-dasharray:none;stroke-dashoffset:99"
       id="path3539-5"
       sodipodi:type="arc"
       sodipodi:cx="4.7624998"
       sodipodi:cy="6.0854168"
       sodipodi:rx="0.26458329"
       sodipodi:ry="0.26458329"
       sodipodi:start="0"
       sodipodi:end="6.2754535"
       sodipodi:arc-type="slice"
       d="M 5.0270831,6.0854168 A 0.26458329,0.26458329 0 0 1 4.7630112,6.3499996 0.26458329,0.26458329 0 0 1 4.4979185,6.0864396 0.26458329,0.26458329 0 0 1 4.7609655,5.820838 0.26458329,0.26458329 0 0 1 5.0270752,6.0833711 l -0.2645754,0.00205 z" />
    <circle
       style="fill:#840001;fill-opacity:0.357671;stroke:none;stroke-width:1.05833;stroke-linecap:round;stroke-linejoin:round;stroke-miterlimit:4;stroke-dasharray:none;stroke-dashoffset:99"
       id="path3539-6"
       sodipodi:type="arc"
       sodipodi:cx="5.8208332"
       sodipodi:cy="6.6145835"
       sodipodi:rx="0.26458329"
       sodipodi:ry="0.26458329"
       sodipodi:start="0"
       sodipodi:end="6.2754535"
       sodipodi:arc-type="slice"
       d="M 6.0854165,6.6145835 A 0.26458329,0.26458329 0 0 1 5.8213446,6.8791663 0.26458329,0.26458329 0 0 1 5.5562519,6.6156063 0.26458329,0.26458329 0 0 1 5.8192989,6.3500047 0.26458329,0.26458329 0 0 1 6.0854086,6.6125378 l -0.2645754,0.00205 z" />

  </g>
  <g
     inkscape:groupmode="layer"
     id="layer3"
     inkscape:label="mountains"
     style="display:inline">
    <g
       id="mountains"
       inkscape:label="#mountains">
      <path
         style="fill:none;fill-rule:evenodd;stroke:#000000;stroke-width:0.529167;stroke-linecap:round;stroke-linejoin:round;stroke-miterlimit:4;stroke-dasharray:none;stroke-opacity:1"
         d="m 1.3229168,7.9375001 1.5875,-1.5875 c 0.2645834,-0.264583 0.79375,-0.264583 1.0583334,0 l 2.116667,2.116667"
         id="path843"
         sodipodi:nodetypes="cccc" />
      <path
         style="fill:none;fill-rule:evenodd;stroke:#000000;stroke-width:0.529167;stroke-linecap:round;stroke-linejoin:round;stroke-miterlimit:4;stroke-dasharray:none;stroke-opacity:1"
         d="m 7.9375002,7.9375001 -0.79375,-0.79375 c -0.264583,-0.264583 -0.79375,-0.264583 -1.058333,0 l -0.5291671,0.529167"
         id="path845"
         sodipodi:nodetypes="cccc" />
      <circle
         style="fill:#000000;stroke:none;stroke-width:0.529167;stroke-linecap:round;stroke-linejoin:round;stroke-miterlimit:4;stroke-dasharray:none;stroke-dashoffset:99;paint-order:normal"
         id="path849"
         cx="5.8208332"
         cy="5.0270834"
         r="0.26458332" />
    </g>
      <set
         id="anm_mountains_display"
         attributeName="display"
         attributeType="CSS"
         begin="anm_bridge_display.begin"
         end="anm_bridge_display.end"
         from="inline"
         to="none"

          />
<!--    <animate
       id="anm_mountains_in"
       dur="0.2s"
       attributeName="opacity"
       begin="0;anm_people_out.end"
       from="0"
       to="1"
       repeatCount="0"
       fill="freeze" />
    <animate
       id="anm_mountains_out"
       dur="0.2s"
       attributeName="opacity"
       begin="anm_mountains_in.end+5s"
       from="1"
       to="0"
       repeatCount="0"
       fill="freeze" />-->
  </g>
  <g
     inkscape:groupmode="layer"
     id="layer2"
     inkscape:label="hotOS"
     sodipodi:insensitive="true">
    <path
       style="fill:none;fill-rule:evenodd;stroke:#000000;stroke-width:0.529167;stroke-linecap:round;stroke-linejoin:round;stroke-miterlimit:4;stroke-dasharray:none;stroke-opacity:1"
       d="m 14.552083,8.4666671 v -3.704167 c 0,-0.529166 0.264583,-0.79375 0.79375,-0.79375 h 2.38125 c 0.529167,0 0.79375,0.264584 0.79375,0.79375 v 3.704167 c -0.0038,0.549058 -0.264583,0.79375 -0.79375,0.79375 h -2.38125 c -0.529167,0 -0.79375,-0.264583 -0.79375,-0.79375 z"
       id="path841-3"
       sodipodi:nodetypes="ccccccccc" />
    <path
       style="fill:none;fill-rule:evenodd;stroke:#000000;stroke-width:0.529167;stroke-linecap:round;stroke-linejoin:round;stroke-miterlimit:4;stroke-dasharray:none;stroke-opacity:1"
       d="m 19.84375,1.3229176 1e-6,7.1437485 c 0,0.529167 0.264583,0.79375 0.793749,0.79375 l 0.529167,10e-7"
       id="path866"
       sodipodi:nodetypes="cccc" />
    <path
       style="fill:none;fill-rule:evenodd;stroke:#000000;stroke-width:0.529167;stroke-linecap:round;stroke-linejoin:round;stroke-miterlimit:4;stroke-dasharray:none;stroke-opacity:1"
       d="m 19.84375,3.9687501 h 1.322917"
       id="path12-6"
       sodipodi:nodetypes="cc" />
    <path
       style="fill:none;fill-rule:evenodd;stroke:#000000;stroke-width:0.529167;stroke-linecap:round;stroke-linejoin:round;stroke-miterlimit:4;stroke-dasharray:none;stroke-opacity:1"
       d="M 22.489583,8.4666671 V 2.1166673 c 0,-0.529166 0.264583,-0.79375 0.79375,-0.79375 l 2.38125,-1e-7 c 0.529167,0 0.79375,0.264584 0.79375,0.79375 v 6.3499999 c -0.0038,0.549058 -0.264583,0.79375 -0.79375,0.79375 h -2.38125 c -0.529167,0 -0.79375,-0.264583 -0.79375,-0.79375 z"
       id="path841-3-7"
       sodipodi:nodetypes="ccccccccc" />
    <path
       style="fill:none;fill-rule:evenodd;stroke:#000000;stroke-width:0.529167;stroke-linecap:round;stroke-linejoin:round;stroke-miterlimit:4;stroke-dasharray:none;stroke-opacity:1"
       d="m 9.2604172,1.3229171 v 7.9375"
       id="path12-5"
       sodipodi:nodetypes="cc" />
    <path
       style="fill:none;fill-rule:evenodd;stroke:#000000;stroke-width:0.529167;stroke-linecap:round;stroke-linejoin:round;stroke-miterlimit:4;stroke-dasharray:none;stroke-opacity:1"
       d="m 9.2604172,4.7625001 c 0,-0.529166 0.264583,-0.79375 0.7937498,-0.79375 h 2.38125 c 0.529166,0 0.79375,0.264584 0.79375,0.79375 v 4.497917"
       id="path12-3"
       sodipodi:nodetypes="ccccc" />
    <path
       style="fill:none;fill-rule:evenodd;stroke:#000000;stroke-width:0.529167;stroke-linecap:round;stroke-linejoin:round;stroke-miterlimit:4;stroke-dasharray:none;stroke-opacity:1"
       d="m 27.78125,9.2604171 c 1.058333,0 2.116666,0 3.174999,0 0.529167,0 0.79375,-0.264583 0.79375,-0.79375 l 1e-6,-3.704167 c 0,-0.529167 -0.264583,-0.79375 -0.79375,-0.79375 H 28.575 c -0.529166,0 -0.79375,-0.264583 -0.79375,-0.7937497 l -1e-6,-1.0583332 c 0,-0.5291666 0.253007,-0.7869967 0.79375,-0.79375 1.058334,0 2.116667,0 3.175001,-1e-7"
       id="path919"
       sodipodi:nodetypes="cccccccccc" />
  </g>
  <rect
     id="rect867">
    <animate
       id="mainloop"
       begin="0;mainloop.end"
       dur="10s"
       attributeName="visibility"
       from="hide"
       to="hide" />
  </rect>
</svg>
